<svg width="91" height="87" viewBox="0 0 91 87" fill="none" xmlns="http://www.w3.org/2000/svg">
<path fill-rule="evenodd" clip-rule="evenodd" d="M83.5475 2.64103C78.0423 0.972976 70.3943 0.0516843 63.5365 3.57278C49.1472 10.8712 42.6372 19.4845 24.9274 15.1208C36.7227 13.4927 40.3336 11.2745 51.6248 4.02309C32.5449 6.35436 -0.128539 -12.4171 1.4629 19.7828C3.05433 51.9826 14.6963 88.9557 25.5111 86.3467C36.3258 83.7377 34.0728 51.4441 45.8655 53.9149C57.6581 56.3856 59.2469 89.1634 67.9928 82.6618C79.2735 74.2014 101.967 8.23872 83.616 2.67854" fill="white"/>
<path d="M40.7968 41.904C40.9674 41.904 41.1488 41.936 41.3408 42C41.5328 42.0427 41.7461 42.1493 41.9808 42.32C42.3648 42.6613 42.8234 42.9493 43.3568 43.184C43.9114 43.3973 44.5408 43.504 45.2448 43.504C46.0341 43.504 46.7701 43.3227 47.4528 42.96C48.1354 42.576 48.6901 42.0427 49.1168 41.36C49.5434 40.6773 49.7568 39.8667 49.7568 38.928C49.7568 37.968 49.5541 37.1893 49.1488 36.592C48.7434 35.9733 48.2208 35.5147 47.5808 35.216C46.9408 34.896 46.2688 34.736 45.5648 34.736C45.1594 34.736 44.8181 34.7787 44.5408 34.864C44.2634 34.928 43.9968 35.0027 43.7408 35.088C43.4848 35.152 43.2074 35.184 42.9088 35.184C42.5034 35.184 42.1834 35.0453 41.9488 34.768C41.7141 34.4693 41.5968 34.1173 41.5968 33.712C41.5968 33.456 41.6501 33.232 41.7568 33.04C41.8634 32.848 42.0128 32.6347 42.2048 32.4L48.1248 26.064L48.8288 26.704H40.3488C39.9221 26.704 39.5594 26.5653 39.2608 26.288C38.9834 25.9893 38.8448 25.6267 38.8448 25.2C38.8448 24.7947 38.9834 24.4533 39.2608 24.176C39.5594 23.8987 39.9221 23.76 40.3488 23.76H50.4608C51.0154 23.76 51.4208 23.92 51.6768 24.24C51.9541 24.56 52.0928 24.9333 52.0928 25.36C52.0928 25.5947 52.0288 25.8187 51.9008 26.032C51.7941 26.2453 51.6554 26.448 51.4848 26.64L45.5328 33.04L44.7328 32.176C44.9034 32.0907 45.1914 32.0053 45.5968 31.92C46.0021 31.8347 46.3328 31.792 46.5888 31.792C47.8048 31.792 48.8928 32.1013 49.8528 32.72C50.8341 33.3387 51.5914 34.1707 52.1248 35.216C52.6794 36.24 52.9568 37.4027 52.9568 38.704C52.9568 40.2613 52.6048 41.616 51.9008 42.768C51.1968 43.8987 50.2154 44.7733 48.9568 45.392C47.7194 46.0107 46.2901 46.32 44.6688 46.32C43.8581 46.32 43.0474 46.2133 42.2368 46C41.4474 45.7653 40.7648 45.4347 40.1888 45.008C39.8261 44.7947 39.5808 44.5707 39.4528 44.336C39.3248 44.08 39.2608 43.8347 39.2608 43.6C39.2608 43.1947 39.3994 42.8107 39.6768 42.448C39.9754 42.0853 40.3488 41.904 40.7968 41.904Z" fill="#95440B"/>
</svg>
