<svg width="91" height="87" viewBox="0 0 91 87" fill="none" xmlns="http://www.w3.org/2000/svg">
<path fill-rule="evenodd" clip-rule="evenodd" d="M83.5475 2.64103C78.0423 0.972976 70.3943 0.0516843 63.5365 3.57278C49.1472 10.8712 42.6372 19.4845 24.9274 15.1208C36.7227 13.4927 40.3336 11.2745 51.6248 4.02309C32.5449 6.35436 -0.128539 -12.4171 1.4629 19.7828C3.05433 51.9826 14.6963 88.9557 25.5111 86.3467C36.3258 83.7377 34.0728 51.4441 45.8655 53.9149C57.6581 56.3856 59.2469 89.1634 67.9928 82.6618C79.2735 74.2014 101.967 8.23872 83.616 2.67854" fill="white"/>
<path d="M51.7848 43.024C52.2114 43.024 52.5634 43.1733 52.8408 43.472C53.1394 43.7493 53.2888 44.1013 53.2888 44.528C53.2888 44.9547 53.1394 45.3067 52.8408 45.584C52.5634 45.8613 52.2114 46 51.7848 46H40.5528C40.0834 46 39.7101 45.8613 39.4328 45.584C39.1554 45.3067 39.0168 44.9333 39.0168 44.464C39.0168 44.0373 39.1661 43.6533 39.4648 43.312L46.6008 35.6C47.5181 34.6187 48.2221 33.648 48.7128 32.688C49.2248 31.728 49.4808 30.8853 49.4808 30.16C49.4808 28.9867 49.1288 28.0373 48.4248 27.312C47.7208 26.5867 46.7928 26.224 45.6408 26.224C45.1501 26.224 44.6488 26.3413 44.1368 26.576C43.6461 26.7893 43.1768 27.088 42.7288 27.472C42.3021 27.8347 41.9288 28.2613 41.6088 28.752C41.3954 29.0507 41.1821 29.2427 40.9688 29.328C40.7554 29.4133 40.5528 29.456 40.3608 29.456C39.9554 29.456 39.5821 29.3173 39.2408 29.04C38.9208 28.7413 38.7608 28.4 38.7608 28.016C38.7608 27.7173 38.8568 27.4293 39.0488 27.152C39.2408 26.8747 39.4861 26.5867 39.7848 26.288C40.2541 25.712 40.8194 25.2 41.4808 24.752C42.1634 24.2827 42.8781 23.92 43.6248 23.664C44.3714 23.408 45.1074 23.28 45.8328 23.28C47.2408 23.28 48.4568 23.5573 49.4808 24.112C50.5261 24.6667 51.3261 25.4453 51.8808 26.448C52.4568 27.4507 52.7448 28.6347 52.7448 30C52.7448 31.152 52.3928 32.432 51.6888 33.84C51.0061 35.2267 50.0461 36.592 48.8088 37.936L43.8488 43.344L43.4968 43.024H51.7848Z" fill="#51690B"/>
</svg>
