<svg width="91" height="87" viewBox="0 0 91 87" fill="none" xmlns="http://www.w3.org/2000/svg">
<path fill-rule="evenodd" clip-rule="evenodd" d="M83.5475 2.64103C78.0423 0.972976 70.3943 0.0516843 63.5365 3.57278C49.1472 10.8712 42.6372 19.4845 24.9274 15.1208C36.7227 13.4927 40.3336 11.2745 51.6248 4.02309C32.5449 6.35436 -0.128539 -12.4171 1.4629 19.7828C3.05433 51.9826 14.6963 88.9557 25.5111 86.3467C36.3258 83.7377 34.0728 51.4441 45.8655 53.9149C57.6581 56.3856 59.2469 89.1634 67.9928 82.6618C79.2735 74.2014 101.967 8.23872 83.616 2.67854" fill="white"/>
<path d="M47.363 46C46.8723 46 46.467 45.8507 46.147 45.552C45.827 45.232 45.667 44.8373 45.667 44.368V27.216L46.083 27.792L43.107 29.872C42.851 30.0853 42.5417 30.192 42.179 30.192C41.7523 30.192 41.3683 30.032 41.027 29.712C40.707 29.3707 40.547 28.976 40.547 28.528C40.547 27.9733 40.8243 27.5147 41.379 27.152L46.243 23.92C46.435 23.792 46.6377 23.7067 46.851 23.664C47.0857 23.6213 47.299 23.6 47.491 23.6C47.9817 23.6 48.3763 23.76 48.675 24.08C48.9737 24.3787 49.123 24.7627 49.123 25.232V44.368C49.123 44.8373 48.9523 45.232 48.611 45.552C48.291 45.8507 47.875 46 47.363 46Z" fill="#0A7135"/>
</svg>
